<svg data-v-887dfbae="" focusable="false" viewBox="0 0 67 64" xmlns="http://www.w3.org/2000/svg" xmlns:xlink="http://www.w3.org/1999/xlink"><path data-v-887dfbae="" d="M17.75 16.197c.404 0 .727.324.727.728v4.61a.724.724 0 0 1-.726.729h-1.856a.724.724 0 0 1-.726-.728v-4.61c0-.405.322-.729.726-.729h1.856zm.243 40.523c.403 0 .726.324.726.81v.242c0 .404-.08.97-.08 1.294v2.993a.724.724 0 0 1-.727.728h-1.856a.724.724 0 0 1-.726-.728v-2.508c0-.404.08-1.617.08-2.022v-.242c0-.405.323-.648.727-.648l1.856.081zm5.89-12.294l-.081.162c-.242.323-2.017 2.992-2.179 3.316l-.08.162a.769.769 0 0 1-.968.242l-1.614-.89a.773.773 0 0 1-.242-.97l.08-.162c.162-.323 2.098-3.235 2.34-3.559l.162-.161c.242-.324.645-.405.968-.162l1.452 1.051c.323.243.404.647.162.97zm7.423-6.31c-.323.244-.807.082-.969-.323l-.806-1.617c-.162-.324 0-.728.322-.89l.162-.08c.322-.244 3.55-1.619 3.873-1.78l.242-.081c.322-.162.726.08.887.404l.807 1.699c.161.323-.08.728-.403.89l-.243.08a160.36 160.36 0 0 0-3.63 1.618l-.242.08zm18.315-3.154h-4.599a.724.724 0 0 1-.726-.728v-1.86c0-.404.323-.728.726-.728h4.599c.403 0 .726.324.726.728v1.86a.724.724 0 0 1-.726.728zm17.186-1.617l-16.54-16.663a.732.732 0 0 0-.565-.242h-1.856a.724.724 0 0 0-.726.728v6.713h-3.792c-6.374 0-12.345 1.537-17.509 4.368v-8.736h7.262a.724.724 0 0 0 .726-.728v-1.86c0-.243-.08-.404-.323-.566L17.428.182c-.242-.243-.726-.243-.968 0l-.242.243h-.081L.242 16.44a.735.735 0 0 0-.242.566v1.86c0 .405.323.728.726.728h6.536v43.678c0 .404.322.728.726.728h1.856a.724.724 0 0 0 .726-.728v-2.993c0-2.184.161-4.206.161-4.206C12.667 39.33 26.465 27.197 43.49 27.197h6.292a.637.637 0 0 0 .646-.647v-4.934l12.345 12.457-12.345 12.051V40.22a.637.637 0 0 0-.646-.647h-5.486c-10.65 0-19.687 7.846-21.3 18.442-.404 2.588-.324 5.176-.324 5.176 0 .405.323.728.727.728h1.855a.724.724 0 0 0 .726-.728s0-2.184.323-4.449c1.13-9.22 8.875-16.015 17.993-16.015H47.2v7.684c0 .405.323.728.727.728h1.855a.73.73 0 0 0 .565-.242s.08 0 .08-.081l16.46-16.42a.997.997 0 0 0-.08-1.051zM22.672 17.006V30.19c-1.452 1.052-2.904 2.184-4.195 3.397v-1.456a.724.724 0 0 0-.726-.728h-1.856c-.404 0-.726.324-.726.648v4.934a32.958 32.958 0 0 0-4.76 7.684V17.006a.724.724 0 0 0-.727-.728H4.841l12.103-11.97 11.941 12.05h-5.567c-.323-.08-.646.244-.646.648z"></path></svg>