<?xml version="1.0" encoding="utf-8"?><svg viewBox="0 0 360 274" xmlns="http://www.w3.org/2000/svg" xmlns:xlink="http://www.w3.org/1999/xlink"><style>:root>svg{display:none}:root>svg:target{display:block}</style><svg viewBox="0 0 103 190" id="dots-1-1" xmlns="http://www.w3.org/2000/svg"><path d="M20 115h3v-3h-3zm-20 0h3v-3H0zm0 19h3v-3H0zm20 19h3v-3h-3zm-20 0h3v-3H0zm20 37h3v-3h-3zm-20 0h3v-3H0zM100 3h3V0h-3zM80 3h3V0h-3zM60 3h3V0h-3zM40 3h3V0h-3zM20 3h3V0h-3zM0 3h3V0H0zm80 19h3v-3h-3zm-20 0h3v-3h-3zm-20 0h3v-3h-3zm-20 0h3v-3h-3zM0 22h3v-3H0zm100 19h3v-3h-3zm-20 0h3v-3h-3zm-20 0h3v-3h-3zm-20 0h3v-3h-3zm-20 0h3v-3h-3zM0 41h3v-3H0zm60 18h3v-3h-3zm-40 0h3v-3h-3zM0 59h3v-3H0zm100 19h3v-3h-3zm-20 0h3v-3h-3zm-20 0h3v-3h-3zm-20 0h3v-3h-3zm-20 0h3v-3h-3zM0 78h3v-3H0zm60 19h3v-3h-3zm-20 0h3v-3h-3zm-20 0h3v-3h-3zM0 97h3v-3H0z" fill="#FFF" fill-rule="evenodd"/></svg><svg viewBox="0 0 104 190" id="dots-1-2" xmlns="http://www.w3.org/2000/svg"><path d="M101 96h3v-3h-3zm-21 0h3v-3h-3zm-20 0h3v-3h-3zm-20 0h3v-3h-3zm61 19h3v-3h-3zm-21 0h3v-3h-3zm-20 0h3v-3h-3zm-20 0h3v-3h-3zm-20 0h3v-3h-3zm81 19h3v-3h-3zm-21 0h3v-3h-3zm-20 0h3v-3h-3zm-20 0h3v-3h-3zm61 18h3v-3h-3zm-41 0h3v-3h-3zm-20 0h3v-3h-3zm-20 0h3v-3h-3zm-20 0h3v-3H0zm101 19h3v-3h-3zm-21 0h3v-3h-3zm-20 0h3v-3h-3zm-20 0h3v-3h-3zm61 19h3v-3h-3zm-21 0h3v-3h-3zm-20 0h3v-3h-3zm-20 0h3v-3h-3zm-20 0h3v-3h-3zm-20 0h3v-3H0zM101 3h3V0h-3zm0 37h3v-3h-3zm-20 0h3v-3h-3zm20 38h3v-3h-3zm-20 0h3v-3h-3z" fill="#FFF" fill-rule="evenodd"/></svg><svg viewBox="0 0 161 47" id="dots-1-3" xmlns="http://www.w3.org/2000/svg"><path d="M0 47h3v-3H0zm20 0h3v-3h-3zm20 0h3v-3h-3zm20 0h3v-3h-3zm20 0h3v-3h-3zm20 0h3v-3h-3zm58-44h3V0h-3zm-20 0h3V0h-3zm-20 0h3V0h-3zm20 19h3v-3h-3zm-20 0h3v-3h-3zm-20 0h3v-3h-3zm60 19h3v-3h-3zm-20 0h3v-3h-3zm-20 0h3v-3h-3z" fill="#FFF" fill-rule="evenodd"/></svg><svg viewBox="0 0 144 96" id="dots-10-1" xmlns="http://www.w3.org/2000/svg"><g fill="#FFF" fill-rule="evenodd"><path d="M84 3h-3V0h3zM104 3h-3V0h3zM124 3h-3V0h3zM104 22h-3v-3h3zM124 22h-3v-3h3zM144 22h-3v-3h3zM84 41h-3v-3h3zM104 41h-3v-3h3zM124 41h-3v-3h3zM3 3H0V0h3zM23 3h-3V0h3zM3 22H0v-3h3zM23 22h-3v-3h3zM43 22h-3v-3h3zM3 41H0v-3h3zM23 41h-3v-3h3zM3 59H0v-3h3zM23 59h-3v-3h3zM43 59h-3v-3h3zM64 59h-3v-3h3zM3 78H0v-3h3zM23 78h-3v-3h3zM3 96H0v-3h3zM23 96h-3v-3h3zM43 96h-3v-3h3zM64 96h-3v-3h3z"/></g></svg><svg viewBox="0 0 97 143" id="dots-10-2" xmlns="http://www.w3.org/2000/svg"><g fill="#FFF" fill-rule="evenodd"><path d="M94 3V0h3v3zM94 23v-3h3v3zM94 43v-3h3v3zM94 63v-3h3v3zM94 83v-3h3v3zM94 103v-3h3v3zM75 23v-3h3v3zM75 43v-3h3v3zM75 63v-3h3v3zM75 83v-3h3v3zM75 103v-3h3v3zM75 123v-3h3v3zM56 3V0h3v3zM56 23v-3h3v3zM56 43v-3h3v3zM56 63v-3h3v3zM56 83v-3h3v3zM56 103v-3h3v3zM38 43v-3h3v3zM38 83v-3h3v3zM38 103v-3h3v3zM38 123v-3h3v3zM38 143v-3h3v3zM19 3V0h3v3zM19 23v-3h3v3zM19 43v-3h3v3zM19 63v-3h3v3zM19 83v-3h3v3zM19 103v-3h3v3zM0 43v-3h3v3zM0 63v-3h3v3zM0 83v-3h3v3zM0 103v-3h3v3zM0 123v-3h3v3zM0 143v-3h3v3z"/></g></svg><svg viewBox="0 0 62 40" id="dots-10-3" xmlns="http://www.w3.org/2000/svg"><path d="M59 3h3V0h-3zM40 3h3V0h-3zM20 3h3V0h-3zm20 19h3v-3h-3zm-20 0h3v-3h-3zM0 22h3v-3H0zm59 18h3v-3h-3zm-19 0h3v-3h-3zm-20 0h3v-3h-3z" fill="#FFF" fill-rule="evenodd"/></svg><svg viewBox="0 0 78 142" id="dots-11-1" xmlns="http://www.w3.org/2000/svg"><g fill="#E30613" fill-rule="evenodd"><path d="M18 0v3h3V0zM18 20v3h3v-3zM18 40v3h3v-3zM18 60v3h3v-3zM18 80v3h3v-3zM18 101v3h3v-3zM0 20v3h3v-3zM0 40v3h3v-3zM0 60v3h3v-3zM0 80v3h3v-3zM0 101v3h3v-3zM0 121v3h3v-3zM75 79v3h3v-3zM75 99v3h3v-3zM75 119v3h3v-3zM56 99v3h3v-3zM56 119v3h3v-3zM56 139v3h3v-3zM37 79v3h3v-3zM37 99v3h3v-3zM37 119v3h3v-3z"/></g></svg><svg viewBox="0 0 83 96" id="dots-11-2" xmlns="http://www.w3.org/2000/svg"><path d="M80 3h3V0h-3zM60 3h3V0h-3zM40 3h3V0h-3zm40 18h3v-3h-3zm-20 0h3v-3h-3zm-20 0h3v-3h-3zm-20 0h3v-3h-3zm60 19h3v-3h-3zm-20 0h3v-3h-3zm-20 0h3v-3h-3zm20 19h3v-3h-3zm-20 0h3v-3h-3zm-20 0h3v-3h-3zM0 59h3v-3H0zm80 18h3v-3h-3zm-20 0h3v-3h-3zm-20 0h3v-3h-3zm40 19h3v-3h-3zm-20 0h3v-3h-3zm-20 0h3v-3h-3zm-20 0h3v-3h-3zM0 96h3v-3H0z" fill="#E30613" fill-rule="evenodd"/></svg><svg viewBox="0 0 62 40" id="dots-12-1" xmlns="http://www.w3.org/2000/svg"><path d="M59 3h3V0h-3zM40 3h3V0h-3zM20 3h3V0h-3zm20 19h3v-3h-3zm-20 0h3v-3h-3zM0 22h3v-3H0zm59 18h3v-3h-3zm-19 0h3v-3h-3zm-20 0h3v-3h-3z" fill="#E30613" fill-rule="evenodd"/></svg><svg viewBox="0 0 161 140" id="dots-12-2" xmlns="http://www.w3.org/2000/svg"><g fill="#E30613" fill-rule="evenodd"><path d="M161 47h-3v-3h3zM141 47h-3v-3h3zM121 47h-3v-3h3zM101 47h-3v-3h3zM81 47h-3v-3h3zM61 47h-3v-3h3zM141 66h-3v-3h3zM121 66h-3v-3h3zM101 66h-3v-3h3zM81 66h-3v-3h3zM61 66h-3v-3h3zM41 66h-3v-3h3zM161 84h-3v-3h3zM141 84h-3v-3h3zM121 84h-3v-3h3zM101 84h-3v-3h3zM81 84h-3v-3h3zM61 84h-3v-3h3zM121 103h-3v-3h3zM81 103h-3v-3h3zM61 103h-3v-3h3zM41 103h-3v-3h3zM21 103h-3v-3h3zM161 121h-3v-3h3zM141 121h-3v-3h3zM121 121h-3v-3h3zM101 121h-3v-3h3zM81 121h-3v-3h3zM61 121h-3v-3h3zM121 140h-3v-3h3zM101 140h-3v-3h3zM81 140h-3v-3h3zM61 140h-3v-3h3zM41 140h-3v-3h3zM21 140h-3v-3h3zM3 3H0V0h3zM23 3h-3V0h3zM43 3h-3V0h3zM23 22h-3v-3h3zM43 22h-3v-3h3zM63 22h-3v-3h3zM3 41H0v-3h3zM23 41h-3v-3h3zM43 41h-3v-3h3zM161 65h-3v-3h3zM161 102h-3v-3h3zM161 140h-3v-3h3z"/></g></svg><svg viewBox="0 0 115 144" id="dots-13-1" xmlns="http://www.w3.org/2000/svg"><g fill="#E30613" fill-rule="evenodd"><path d="M55 0v3h3V0zM55 20v3h3v-3zM55 40v3h3v-3zM55 60v3h3v-3zM55 80v3h3v-3zM55 101v3h3v-3zM37 20v3h3v-3zM37 40v3h3v-3zM37 60v3h3v-3zM37 80v3h3v-3zM37 101v3h3v-3zM37 121v3h3v-3zM18 0v3h3V0zM18 20v3h3v-3zM18 40v3h3v-3zM18 60v3h3v-3zM18 80v3h3v-3zM18 101v3h3v-3zM0 40v3h3v-3zM0 80v3h3v-3zM0 101v3h3v-3zM0 121v3h3v-3zM0 141v3h3v-3zM112 79v3h3v-3zM112 99v3h3v-3zM112 119v3h3v-3zM93 99v3h3v-3zM93 119v3h3v-3zM93 139v3h3v-3zM74 79v3h3v-3zM74 99v3h3v-3zM74 119v3h3v-3z"/></g></svg><svg viewBox="0 0 62 40" id="dots-13-2" xmlns="http://www.w3.org/2000/svg"><g fill="#E30613" fill-rule="evenodd"><path d="M3 3H0V0h3zM22 3h-3V0h3zM42 3h-3V0h3zM22 22h-3v-3h3zM42 22h-3v-3h3zM62 22h-3v-3h3zM3 40H0v-3h3zM22 40h-3v-3h3zM42 40h-3v-3h3z"/></g></svg><svg viewBox="0 0 83 190" id="dots-14-1" xmlns="http://www.w3.org/2000/svg"><g fill="#FFF" fill-rule="evenodd"><path d="M0 75h3v3H0zM0 37h3v3H0zM0 0h3v3H0zM80 187h3v3h-3zM60 187h3v3h-3zM40 187h3v3h-3zM20 187h3v3h-3zM0 187h3v3H0zM60 168h3v3h-3zM40 168h3v3h-3zM20 168h3v3h-3zM0 168h3v3H0zM80 149h3v3h-3zM60 149h3v3h-3zM40 149h3v3h-3zM20 149h3v3h-3zM0 149h3v3H0zM40 131h3v3h-3zM0 131h3v3H0zM80 112h3v3h-3zM60 112h3v3h-3zM40 112h3v3h-3zM20 112h3v3h-3zM0 112h3v3H0zM40 93h3v3h-3zM20 93h3v3h-3zM0 93h3v3H0z"/></g></svg><svg viewBox="0 0 144 58" id="dots-14-2" xmlns="http://www.w3.org/2000/svg"><path d="M0 3h3V0H0zm20 0h3V0h-3zm20 0h3V0h-3zm21 0h3V0h-3zm20 0h3V0h-3zm20 0h3V0h-3zM40 21h3v-3h-3zm41 0h3v-3h-3zm20 0h3v-3h-3zm20 0h3v-3h-3zm20 0h3v-3h-3zM0 40h3v-3H0zm20 0h3v-3h-3zm20 0h3v-3h-3zm21 0h3v-3h-3zm20 0h3v-3h-3zm20 0h3v-3h-3zM40 58h3v-3h-3zm21 0h3v-3h-3zm20 0h3v-3h-3zm20 0h3v-3h-3zm20 0h3v-3h-3zm20 0h3v-3h-3z" fill="#FFF" fill-rule="evenodd"/></svg><svg viewBox="0 0 184 96" id="dots-15-1" xmlns="http://www.w3.org/2000/svg"><g fill="#E30613" fill-rule="evenodd"><path d="M124 3h-3V0h3zM144 3h-3V0h3zM164 3h-3V0h3zM144 22h-3v-3h3zM164 22h-3v-3h3zM184 22h-3v-3h3zM124 41h-3v-3h3zM144 41h-3v-3h3zM164 41h-3v-3h3zM3 3H0V0h3zM23 3h-3V0h3zM43 3h-3V0h3zM63 3h-3V0h3zM3 22H0v-3h3zM23 22h-3v-3h3zM43 22h-3v-3h3zM63 22h-3v-3h3zM83 22h-3v-3h3zM3 41H0v-3h3zM23 41h-3v-3h3zM43 41h-3v-3h3zM63 41h-3v-3h3zM3 59H0v-3h3zM43 59h-3v-3h3zM63 59h-3v-3h3zM83 59h-3v-3h3zM104 59h-3v-3h3zM3 78H0v-3h3zM23 78h-3v-3h3zM43 78h-3v-3h3zM63 78h-3v-3h3zM3 96H0v-3h3zM23 96h-3v-3h3zM43 96h-3v-3h3zM63 96h-3v-3h3zM83 96h-3v-3h3zM104 96h-3v-3h3z"/></g></svg><svg viewBox="0 0 62 40" id="dots-15-2" xmlns="http://www.w3.org/2000/svg"><path d="M59 3h3V0h-3zM40 3h3V0h-3zM20 3h3V0h-3zm20 19h3v-3h-3zm-20 0h3v-3h-3zM0 22h3v-3H0zm59 18h3v-3h-3zm-19 0h3v-3h-3zm-20 0h3v-3h-3z" fill="#E30613" fill-rule="evenodd"/></svg><svg viewBox="0 0 203 136" id="dots-16-2" xmlns="http://www.w3.org/2000/svg"><path d="M60 99h3v-3h-3zm-20 0h3v-3h-3zm-20 0h3v-3h-3zm20 18h3v-3h-3zm-20 0h3v-3h-3zm-20 0h3v-3H0zm60 19h3v-3h-3zm-20 0h3v-3h-3zm-20 0h3v-3h-3zM200 3h3V0h-3zm-20 0h3V0h-3zm-20 0h3V0h-3zm-20 0h3V0h-3zm-20 0h3V0h-3zm80 19h3v-3h-3zm-20 0h3v-3h-3zm-20 0h3v-3h-3zm-20 0h3v-3h-3zm-20 0h3v-3h-3zm-20 0h3v-3h-3zm100 18h3v-3h-3zm-20 0h3v-3h-3zm-20 0h3v-3h-3zm-20 0h3v-3h-3zm-20 0h3v-3h-3zm60 19h3v-3h-3zm-40 0h3v-3h-3zm-20 0h3v-3h-3zm-20 0h3v-3h-3zm-20 0h3v-3h-3zm120 19h3v-3h-3zm-20 0h3v-3h-3zm-20 0h3v-3h-3zm-20 0h3v-3h-3zm-20 0h3v-3h-3zm60 18h3v-3h-3zm-20 0h3v-3h-3zm-20 0h3v-3h-3zm-20 0h3v-3h-3zm-20 0h3v-3h-3zm-20 0h3v-3h-3z" fill="#E30613" fill-rule="evenodd"/></svg><svg viewBox="0 0 141 140" id="dots-17-1" xmlns="http://www.w3.org/2000/svg"><path d="M0 47h3v-3H0zm20 0h3v-3h-3zm20 0h3v-3h-3zm20 0h3v-3h-3zm20 0h3v-3h-3zM0 66h3v-3H0zm20 0h3v-3h-3zm20 0h3v-3h-3zm20 0h3v-3h-3zm20 0h3v-3h-3zm20 0h3v-3h-3zM0 84h3v-3H0zm20 0h3v-3h-3zm20 0h3v-3h-3zm20 0h3v-3h-3zm20 0h3v-3h-3zm-60 19h3v-3h-3zm40 0h3v-3h-3zm20 0h3v-3h-3zm20 0h3v-3h-3zm20 0h3v-3h-3zM0 121h3v-3H0zm20 0h3v-3h-3zm20 0h3v-3h-3zm20 0h3v-3h-3zm20 0h3v-3h-3zm-60 19h3v-3h-3zm20 0h3v-3h-3zm20 0h3v-3h-3zm20 0h3v-3h-3zm20 0h3v-3h-3zm20 0h3v-3h-3zM138 3h3V0h-3zm-20 0h3V0h-3zM98 3h3V0h-3zm20 19h3v-3h-3zm-20 0h3v-3h-3zm-20 0h3v-3h-3zm60 19h3v-3h-3zm-20 0h3v-3h-3zm-20 0h3v-3h-3z" fill="#FFF" fill-rule="evenodd"/></svg><svg viewBox="0 0 104 96" id="dots-17-2" xmlns="http://www.w3.org/2000/svg"><path d="M0 3h3V0H0zm20 0h3V0h-3zm20 0h3V0h-3zm21 0h3V0h-3zm20 0h3V0h-3zm20 0h3V0h-3zM20 22h3v-3h-3zm20 0h3v-3h-3zm21 0h3v-3h-3zm20 0h3v-3h-3zm20 0h3v-3h-3zM0 41h3v-3H0zm20 0h3v-3h-3zm20 0h3v-3h-3zm21 0h3v-3h-3zm20 0h3v-3h-3zm20 0h3v-3h-3zM40 59h3v-3h-3zm41 0h3v-3h-3zm20 0h3v-3h-3zM0 78h3v-3H0zm20 0h3v-3h-3zm20 0h3v-3h-3zm21 0h3v-3h-3zm20 0h3v-3h-3zm20 0h3v-3h-3zM40 96h3v-3h-3zm21 0h3v-3h-3zm20 0h3v-3h-3zm20 0h3v-3h-3z" fill="#FFF" fill-rule="evenodd"/></svg><svg viewBox="0 0 121 140" id="dots-18-1" xmlns="http://www.w3.org/2000/svg"><path d="M0 47h3v-3H0zm20 0h3v-3h-3zm20 0h3v-3h-3zm20 0h3v-3h-3zM0 66h3v-3H0zm20 0h3v-3h-3zm20 0h3v-3h-3zm20 0h3v-3h-3zm20 0h3v-3h-3zM0 84h3v-3H0zm20 0h3v-3h-3zm20 0h3v-3h-3zm20 0h3v-3h-3zM0 103h3v-3H0zm40 0h3v-3h-3zm20 0h3v-3h-3zm20 0h3v-3h-3zm20 0h3v-3h-3zM0 121h3v-3H0zm20 0h3v-3h-3zm20 0h3v-3h-3zm20 0h3v-3h-3zM0 140h3v-3H0zm20 0h3v-3h-3zm20 0h3v-3h-3zm20 0h3v-3h-3zm20 0h3v-3h-3zm20 0h3v-3h-3zM118 3h3V0h-3zM98 3h3V0h-3zM78 3h3V0h-3zm20 19h3v-3h-3zm-20 0h3v-3h-3zm-20 0h3v-3h-3zm60 19h3v-3h-3zm-20 0h3v-3h-3zm-20 0h3v-3h-3z" fill="#E30613" fill-rule="evenodd"/></svg><svg viewBox="0 0 124 96" id="dots-18-2" xmlns="http://www.w3.org/2000/svg"><path d="M121 3h3V0h-3zm-20 0h3V0h-3zM80 3h3V0h-3zM60 3h3V0h-3zM40 3h3V0h-3zm81 18h3v-3h-3zm-20 0h3v-3h-3zm-21 0h3v-3h-3zm-20 0h3v-3h-3zm-20 0h3v-3h-3zm-20 0h3v-3h-3zm101 19h3v-3h-3zm-20 0h3v-3h-3zm-21 0h3v-3h-3zm-20 0h3v-3h-3zm-20 0h3v-3h-3zm61 19h3v-3h-3zm-41 0h3v-3h-3zm-20 0h3v-3h-3zm-20 0h3v-3h-3zM0 59h3v-3H0zm121 18h3v-3h-3zm-20 0h3v-3h-3zm-21 0h3v-3h-3zm-20 0h3v-3h-3zm-20 0h3v-3h-3zm61 19h3v-3h-3zm-21 0h3v-3h-3zm-20 0h3v-3h-3zm-20 0h3v-3h-3zm-20 0h3v-3h-3zM0 96h3v-3H0z" fill="#E30613" fill-rule="evenodd"/></svg><svg viewBox="0 0 145 97" id="dots-19-2" xmlns="http://www.w3.org/2000/svg"><path d="M.757 3.414h3v-3h-3zm20.001 0h3v-3h-3zm20 0h3v-3h-3zm21 0h2.999v-3h-2.999zm19.999 0h3v-3h-3zm20 0h3v-3h-3zm-80.999 19h3v-3h-3zm20 0h3v-3h-3zm21 0h2.999v-3h-2.999zm19.999 0h3v-3h-3zm20 0h3v-3h-3zm20 0h3v-3h-3zm-121 19h3v-3h-3zm20.001 0h3v-3h-3zm20 0h3v-3h-3zm21 0h2.999v-3h-2.999zm19.999 0h3v-3h-3zm20 0h3v-3h-3zm-60.999 18h3v-3h-3zm40.999 0h3v-3h-3zm20 0h3v-3h-3zm20 0h3v-3h-3zm20 0h3v-3h-3zm-141 19h3v-3h-3zm20.001 0h3v-3h-3zm20 0h3v-3h-3zm21 0h2.999v-3h-2.999zm19.999 0h3v-3h-3zm20 0h3v-3h-3zm-60.999 18h3v-3h-3zm21 0h2.999v-3h-2.999zm19.999 0h3v-3h-3zm20 0h3v-3h-3zm20 0h3v-3h-3zm20 0h3v-3h-3z" fill="#E30613" fill-rule="evenodd"/></svg><svg viewBox="0 0 360 274" id="dots-2-1" xmlns="http://www.w3.org/2000/svg"><path d="M196 3.414h3v-3h-3zm-20 0h3v-3h-3zm-20 0h3v-3h-3zm20 19h3v-3h-3zm-20 0h3v-3h-3zm-20 0h3v-3h-3zm60 19h3v-3h-3zm-20 0h3v-3h-3zm-20 0h3v-3h-3zm201-38h3v-3h-3zm-20 0h3v-3h-3zm-20 0h3v-3h-3zm-20 0h3v-3h-3zm-20 0h3v-3h-3zm-20 0h3v-3h-3zm80 19h3v-3h-3zm-20 0h3v-3h-3zm-20 0h3v-3h-3zm-20 0h3v-3h-3zm-20 0h3v-3h-3zm-20 0h3v-3h-3zm120 19h3v-3h-3zm-20 0h3v-3h-3zm-20 0h3v-3h-3zm-20 0h3v-3h-3zm-20 0h3v-3h-3zm-20 0h3v-3h-3zm60 18h3v-3h-3zm-40 0h3v-3h-3zm-20 0h3v-3h-3zm-20 0h3v-3h-3zm-21 0h3v-3h-3zm141 19h3v-3h-3zm-20 0h3v-3h-3zm-20 0h3v-3h-3zm-20 0h3v-3h-3zm-20 0h3v-3h-3zm-20 0h3v-3h-3zm60 18h3v-3h-3zm-20 0h3v-3h-3zm-20 0h3v-3h-3zm-20 0h3v-3h-3zm-20 0h3v-3h-3zm-21 0h3v-3h-3zm-117 66h3v-3h-3zm20 0h3v-3h-3zm20 0h3v-3h-3zm20 0h3v-3h-3zm20 0h3v-3h-3zm20 0h3v-3h-3zm-80 19h3v-3h-3zm20 0h3v-3h-3zm20 0h3v-3h-3zm20 0h3v-3h-3zm20 0h3v-3h-3zm20 0h3v-3h-3zm-120 18h3v-3h-3zm20 0h3v-3h-3zm20 0h3v-3h-3zm20 0h3v-3h-3zm20 0h3v-3h-3zm20 0h3v-3h-3zm-60 19h3v-3h-3zm40 0h3v-3h-3zm20 0h3v-3h-3zm20 0h3v-3h-3zm20 0h3v-3h-3zm-140 18h3v-3h-3zm20 0h3v-3h-3zm20 0h3v-3h-3zm20 0h3v-3h-3zm20 0h3v-3h-3zm20 0h3v-3h-3zm-60 19h3v-3h-3zm20 0h3v-3h-3zm20 0h3v-3h-3zm20 0h3v-3h-3zm20 0h3v-3h-3zm20 0h3v-3h-3zm18-137h3v-3h-3zm-20 0h3v-3h-3zm-20 0h3v-3h-3zm20 19h3v-3h-3zm-20 0h3v-3h-3zm-20 0h3v-3h-3zm60 19h3v-3h-3zm-20 0h3v-3h-3zm-20 0h3v-3h-3zm-118 24h3v-3h-3zm-19 0h3v-3h-3zm-20 0h3v-3h-3zm-20 0h3v-3h-3zm-20 0h3v-3h-3zm-20 0h3v-3H0zm80 19h3v-3h-3zm-20 0h3v-3h-3zm-20 0h3v-3h-3zm-20 0h3v-3h-3zm-20 0h3v-3H0zm99 18h3v-3h-3zm-19 0h3v-3h-3zm-20 0h3v-3h-3zm-20 0h3v-3h-3zm-20 0h3v-3h-3zm-20 0h3v-3H0zm60 19h3v-3h-3zm-40 0h3v-3h-3zm-20 0h3v-3H0zm99 19h3v-3h-3zm-19 0h3v-3h-3zm-20 0h3v-3h-3zm-20 0h3v-3h-3zm-20 0h3v-3h-3zm-20 0h3v-3H0zm60 18h3v-3h-3zm-20 0h3v-3h-3zm-20 0h3v-3h-3zm-20 0h3v-3H0z" fill="#E30613" fill-rule="evenodd"/></svg><svg viewBox="0 0 166 155" id="dots-2-2" xmlns="http://www.w3.org/2000/svg"><path d="M1 3.414h3v-3H1zm20.001 0h3v-3h-3zm20 0h3v-3h-3zm20 0h3v-3h-3zm19.999 0h3v-3h-3zm20 0h3v-3h-3zm-79.999 19h3v-3h-3zm20 0h3v-3h-3zm20 0h3v-3h-3zm19.999 0h3v-3h-3zm20 0h3v-3h-3zm20 0h3v-3h-3zm-120 19h3v-3H1zm20.001 0h3v-3h-3zm20 0h3v-3h-3zm20 0h3v-3h-3zm19.999 0h3v-3h-3zm20 0h3v-3h-3zm-59.999 18h3v-3h-3zm39.999 0h3v-3h-3zm20 0h3v-3h-3zm20 0h3v-3h-3zm21 0h3v-3h-3zm-141 19h3v-3H1zm20.001 0h3v-3h-3zm20 0h3v-3h-3zm20 0h3v-3h-3zm19.999 0h3v-3h-3zm20 0h3v-3h-3zm-59.999 19h3v-3h-3zm20 0h3v-3h-3zm19.999 0h3v-3h-3zm20 0h3v-3h-3zm20 0h3v-3h-3zm21 0h3v-3h-3zm-40 20h3v-3h-3zm20 0h3v-3h-3zm20 0h3v-3h-3zm-20 18h3v-3h-3zm20 0h3v-3h-3zm20 0h3v-3h-3zm-60 19h3v-3h-3zm20 0h3v-3h-3zm20 0h3v-3h-3z" fill="#E30613" fill-rule="evenodd"/></svg><svg viewBox="0 0 144 96" id="dots-20-1" xmlns="http://www.w3.org/2000/svg"><path d="M141 93h3v3h-3zm-20 0h3v3h-3zm-20 0h3v3h-3zm-20 0h3v3h-3zm-20 0h3v3h-3zm-20 0h3v3h-3zm80-19h3v3h-3zm-20 0h3v3h-3zm-20 0h3v3h-3zm-20 0h3v3h-3zm-20 0h3v3h-3zm-20 0h3v3h-3zm120-19h3v3h-3zm-20 0h3v3h-3zm-20 0h3v3h-3zm-20 0h3v3h-3zm-20 0h3v3h-3zm-20 0h3v3h-3zm60-18h3v3h-3zm-40 0h3v3h-3zm-20 0h3v3h-3zm-20 0h3v3h-3zM0 37h3v3H0zm141-19h3v3h-3zm-20 0h3v3h-3zm-20 0h3v3h-3zm-20 0h3v3h-3zm-20 0h3v3h-3zm-20 0h3v3h-3zm60-18h3v3h-3zM81 0h3v3h-3zM61 0h3v3h-3zM41 0h3v3h-3zM21 0h3v3h-3zM0 0h3v3H0z" fill="#E30613" fill-rule="evenodd"/></svg><svg viewBox="0 0 180 140" id="dots-20-2" xmlns="http://www.w3.org/2000/svg"><path d="M161 47h-3v-3h3zm-20 0h-3v-3h3zm-20 0h-3v-3h3zm-20 0h-3v-3h3zm-20 0h-3v-3h3zm-20 0h-3v-3h3zm80 19h-3v-3h3zm-20 0h-3v-3h3zm-20 0h-3v-3h3zm-20 0h-3v-3h3zm-20 0h-3v-3h3zm-20 0h-3v-3h3zm120 18h-3v-3h3zm-20 0h-3v-3h3zm-20 0h-3v-3h3zm-20 0h-3v-3h3zm-20 0h-3v-3h3zm-20 0h-3v-3h3zm60 19h-3v-3h3zm-40 0h-3v-3h3zm-20 0h-3v-3h3zm-20 0h-3v-3h3zm-20 0h-3v-3h3zm140 18h-3v-3h3zm-20 0h-3v-3h3zm-20 0h-3v-3h3zm-20 0h-3v-3h3zm-20 0h-3v-3h3zm-20 0h-3v-3h3zm60 19h-3v-3h3zm-20 0h-3v-3h3zm-20 0h-3v-3h3zm-20 0h-3v-3h3zm-20 0h-3v-3h3zm-20 0h-3v-3h3zM3 3H0V0h3zm20 0h-3V0h3zm20 0h-3V0h3zM23 22h-3v-3h3zm20 0h-3v-3h3zm20 0h-3v-3h3zM3 41H0v-3h3zm20 0h-3v-3h3zm20 0h-3v-3h3zm118 24h-3v-3h3zm19 0h-3v-3h3zm0 19h-3v-3h3zm-19 18h-3v-3h3zm19 0h-3v-3h3zm-19 38h-3v-3h3zm19 0h-3v-3h3z" fill="#E30613" fill-rule="evenodd"/></svg><svg viewBox="0 0 44 135" id="dots-21-1" xmlns="http://www.w3.org/2000/svg"><path d="M0 3h3V0H0zm0 37h3v-3H0zm21 0h3v-3h-3zM0 78h3v-3H0zm21 0h3v-3h-3zM1 98h3v-3H1zm20 0h3v-3h-3zM1 116h3v-3H1zm20 0h3v-3h-3zm20 0h3v-3h-3zM1 135h3v-3H1zm20 0h3v-3h-3z" fill="#FFF" fill-rule="evenodd"/></svg><svg viewBox="0 0 23 78" id="dots-21-2" xmlns="http://www.w3.org/2000/svg"><path d="M0 3h3V0H0zm20 0h3V0h-3zm0 19h3v-3h-3zM0 41h3v-3H0zm20 0h3v-3h-3zm0 37h3v-3h-3z" fill="#FFF" fill-rule="evenodd"/></svg><svg viewBox="0 0 45 41" id="dots-22-1" xmlns="http://www.w3.org/2000/svg"><g fill="#E30613" fill-rule="evenodd">`<path d="M.757 3.414h3v-3h-3zm21.001 19h3v-3h-3zm-21.001 0h3v-3h-3zm41.001 18h3v-3h-3zm-20 0h3v-3h-3zm-21.001 0h3v-3h-3z"/></g></svg><svg viewBox="0 0 104 116" id="dots-23-1" xmlns="http://www.w3.org/2000/svg"><path d="M40.758 112.586h3v3h-3zm20 0h3v3h-3zm19.999 0h3v3h-3zm-19.999-19h3v3h-3zm19.999 0h3v3h-3zm20 0h3v3h-3zm-59.999-19h3v3h-3zm20 0h3v3h-3zm19.999 0h3v3h-3zm-59.999 0h3v3h-3zm-20.001 0h3v3h-3zm0-18h3v3h-3zm20.001-19h3v3h-3zm-20.001 0h3v3h-3zm20.001-37h3v3h-3zM.757.586h3v3h-3z" fill="#E30613" fill-rule="evenodd"/></svg><svg viewBox="0 0 144 154" id="dots-24-1" xmlns="http://www.w3.org/2000/svg"><path d="M0 3h3V0H0zm20 0h3V0h-3zm20 0h3V0h-3zm20 0h3V0h-3zm20 0h3V0h-3zM0 22h3v-3H0zm20 0h3v-3h-3zm20 0h3v-3h-3zm20 0h3v-3h-3zm20 0h3v-3h-3zm20 0h3v-3h-3zM0 41h3v-3H0zm20 0h3v-3h-3zm20 0h3v-3h-3zm20 0h3v-3h-3zm20 0h3v-3h-3zM20 59h3v-3h-3zm40 0h3v-3h-3zm20 0h3v-3h-3zm20 0h3v-3h-3zm21 0h3v-3h-3zM0 78h3v-3H0zm20 0h3v-3h-3zm20 0h3v-3h-3zm20 0h3v-3h-3zm20 0h3v-3h-3zM20 97h3v-3h-3zm20 0h3v-3h-3zm20 0h3v-3h-3zm20 0h3v-3h-3zm20 0h3v-3h-3zm21 0h3v-3h-3zm-40 20h3v-3h-3zm20 0h3v-3h-3zm20 0h3v-3h-3zm-20 18h3v-3h-3zm20 0h3v-3h-3zm20 0h3v-3h-3zm-60 19h3v-3h-3zm20 0h3v-3h-3zm20 0h3v-3h-3z" fill="#E30613" fill-rule="evenodd"/></svg><svg viewBox="0 0 184 96" id="dots-24-2" xmlns="http://www.w3.org/2000/svg"><path d="M60 3h3V0h-3zM40 3h3V0h-3zM20 3h3V0h-3zm20 19h3v-3h-3zm-20 0h3v-3h-3zM0 22h3v-3H0zm60 19h3v-3h-3zm-20 0h3v-3h-3zm-20 0h3v-3h-3zM181 3h3V0h-3zm-20 0h3V0h-3zm-20 0h3V0h-3zm-20 0h3V0h-3zm60 19h3v-3h-3zm-20 0h3v-3h-3zm-20 0h3v-3h-3zm-20 0h3v-3h-3zm-20 0h3v-3h-3zm80 19h3v-3h-3zm-20 0h3v-3h-3zm-20 0h3v-3h-3zm-20 0h3v-3h-3zm60 18h3v-3h-3zm-40 0h3v-3h-3zm-20 0h3v-3h-3zm-20 0h3v-3h-3zm-21 0h3v-3h-3zm101 19h3v-3h-3zm-20 0h3v-3h-3zm-20 0h3v-3h-3zm-20 0h3v-3h-3zm60 18h3v-3h-3zm-20 0h3v-3h-3zm-20 0h3v-3h-3zm-20 0h3v-3h-3zm-20 0h3v-3h-3zm-21 0h3v-3h-3z" fill="#E30613" fill-rule="evenodd"/></svg><svg viewBox="0 0 85 97" id="dots-25-1" xmlns="http://www.w3.org/2000/svg"><path d="M.757 3.414h3v-3h-3zm20.001 0h3v-3h-3zm20 0h3v-3h-3zm-20 19h3v-3h-3zm20 0h3v-3h-3zm21 0h2.999v-3h-2.999zm-61.001 19h3v-3h-3zm20.001 0h3v-3h-3zm20 0h3v-3h-3zm40.999 18h3v-3h-3zm-19.999 0h2.999v-3h-2.999zm-21 0h3v-3h-3zm21 19h2.999v-3h-2.999zm-21 0h3v-3h-3zm-20 0h3v-3h-3zm60.999 18h3v-3h-3zm-19.999 0h2.999v-3h-2.999zm-21 0h3v-3h-3z" fill="#E30613" fill-rule="evenodd"/></svg><svg viewBox="0 0 135 225" id="dots-25-2" xmlns="http://www.w3.org/2000/svg"><path d="M3.414 63.243v-3h-3v3zm0-20v-3h-3v3zm0-20v-3h-3v3zm19 20v-3h-3v3zm0-20v-3h-3v3zm0-20v-3h-3v3zm19 60v-3h-3v3zm0-20v-3h-3v3zm0-20v-3h-3v3zm0 60v-3h-3v3zm0 20v-3h-3v3zm0 20v-3h-3v3zm0 21v-3h-3v3zm0 19.999v-3h-3v3zm0 20v-3h-3v3zm18-80.999v-3h-3v3zm0 20v-3h-3v3zm0 21v-3h-3v3zm0 19.999v-3h-3v3zm0 20v-3h-3v3zm0 20v-3h-3v3zm19-120.999v-3h-3v3zm0 20v-3h-3v3zm0 20v-3h-3v3zm0 21v-3h-3v3zm0 19.999v-3h-3v3zm0 20v-3h-3v3zm19-60.999v-3h-3v3zm0 40.999v-3h-3v3zm0 20v-3h-3v3zm0 20v-3h-3v3zm0 20.001v-3h-3v3zm18-141v-3h-3v3zm0 20v-3h-3v3zm0 20v-3h-3v3zm0 21v-3h-3v3zm0 19.999v-3h-3v3zm0 20v-3h-3v3zm19-60.999v-3h-3v3zm0 21v-3h-3v3zm0 19.999v-3h-3v3zm0 20v-3h-3v3zm0 20v-3h-3v3zm0 20.001v-3h-3v3z" fill="#E30613" fill-rule="evenodd"/></svg><svg viewBox="0 0 45 41" id="dots-26" xmlns="http://www.w3.org/2000/svg"><path d="M44.242 37.586h-3v3h3zm-21-19h-3v3h3zm21 0h-3v3h3zm-41-18h-3v3h3zm20 0h-3v3h3zm21 0h-3v3h3z" fill="#E30613" fill-rule="evenodd"/></svg><svg viewBox="0 0 43 97" id="dots-26-1" xmlns="http://www.w3.org/2000/svg"><path d="M40 3h3V0h-3zM20 3h3V0h-3zM0 3h3V0H0zm20 19h3v-3h-3zM0 22h3v-3H0zm40 19h3v-3h-3zm-20 0h3v-3h-3zM0 41h3v-3H0zm0 18h3v-3H0zm40 19h3v-3h-3zm-20 0h3v-3h-3zM0 78h3v-3H0zm0 19h3v-3H0z" fill="#FFF" fill-rule="evenodd"/></svg><svg viewBox="0 0 104 152" id="dots-26-2" xmlns="http://www.w3.org/2000/svg"><path d="M101 96h3v-3h-3zm-21 0h3v-3h-3zm-20 0h3v-3h-3zm-20 0h3v-3h-3zm61 19h3v-3h-3zm-21 0h3v-3h-3zm-20 0h3v-3h-3zm-20 0h3v-3h-3zm-20 0h3v-3h-3zm81 19h3v-3h-3zm-21 0h3v-3h-3zm-20 0h3v-3h-3zm-20 0h3v-3h-3zm61 18h3v-3h-3zm-41 0h3v-3h-3zm-20 0h3v-3h-3zm-20 0h3v-3h-3zm-20 0h3v-3H0zM101 3h3V0h-3zm0 37h3v-3h-3zm-20 0h3v-3h-3zm20 38h3v-3h-3zm-20 0h3v-3h-3z" fill="#FFF" fill-rule="evenodd"/></svg><svg viewBox="0 0 83 96" id="dots-27-1" xmlns="http://www.w3.org/2000/svg"><path d="M80 93h3v3h-3zm-20 0h3v3h-3zm-20 0h3v3h-3zm-20 0h3v3h-3zM0 93h3v3H0zm60-19h3v3h-3zm-20 0h3v3h-3zm-20 0h3v3h-3zM0 74h3v3H0zm80-19h3v3h-3zm-20 0h3v3h-3zm-20 0h3v3h-3zm-20 0h3v3h-3zM0 55h3v3H0zm40-18h3v3h-3zM0 37h3v3H0zm80-19h3v3h-3zm-20 0h3v3h-3zm-20 0h3v3h-3zm-20 0h3v3h-3zM0 18h3v3H0zM40 0h3v3h-3zM20 0h3v3h-3zM0 0h3v3H0z" fill="#E30613" fill-rule="evenodd"/></svg><svg viewBox="0 0 101 140" id="dots-27-2" xmlns="http://www.w3.org/2000/svg"><path d="M101 47h-3v-3h3zm-20 0h-3v-3h3zm-20 0h-3v-3h3zm40 19h-3v-3h3zm-20 0h-3v-3h3zm-20 0h-3v-3h3zm-20 0h-3v-3h3zm60 18h-3v-3h3zm-20 0h-3v-3h3zm-20 0h-3v-3h3zm20 19h-3v-3h3zm-20 0h-3v-3h3zm-20 0h-3v-3h3zm-20 0h-3v-3h3zm80 18h-3v-3h3zm-20 0h-3v-3h3zm-20 0h-3v-3h3zm40 19h-3v-3h3zm-20 0h-3v-3h3zm-20 0h-3v-3h3zm-20 0h-3v-3h3zm-20 0h-3v-3h3zM3 3H0V0h3zm20 0h-3V0h3zm20 0h-3V0h3zM23 22h-3v-3h3zm20 0h-3v-3h3zm20 0h-3v-3h3zM3 41H0v-3h3zm20 0h-3v-3h3zm20 0h-3v-3h3z" fill="#E30613" fill-rule="evenodd"/></svg><svg viewBox="0 0 105 266" id="dots-3-1" xmlns="http://www.w3.org/2000/svg"><path d="M.757 60.914h3v-3h-3zm20 0h3v-3h-3zm20 0h3v-3h-3zm21 0h3v-3h-3zm-61 18h3v-3h-3zm20 0h3v-3h-3zm20 0h3v-3h-3zm21 0h3v-3h-3zm20 0h3v-3h-3zm-81 19h3v-3h-3zm20 0h3v-3h-3zm20 0h3v-3h-3zm21 0h3v-3h-3zm-61 18h3v-3h-3zm40 0h3v-3h-3zm21 0h3v-3h-3zm20 0h3v-3h-3zm20 0h3v-3h-3zm-101 19h3v-3h-3zm20 0h3v-3h-3zm20 0h3v-3h-3zm21 0h3v-3h-3zm-61 18h3v-3h-3zm20 0h3v-3h-3zm20 0h3v-3h-3zm21 0h3v-3h-3zm20 0h3v-3h-3zm20 0h3v-3h-3zm-62-149h3v-3h-3zm20 0h3v-3h-3zm20 0h3v-3h-3zm-20 19h3v-3h-3zm20 0h3v-3h-3zm20 0h3v-3h-3zm-60 19h3v-3h-3zm20 0h3v-3h-3zm20 0h3v-3h-3zm-18 131h3v-3h-3zm-20 0h3v-3h-3zm-21 0h3v-3h-3zm-20 0h3v-3h-3zm41 19h3v-3h-3zm-21 0h3v-3h-3zm-20 0h3v-3h-3zm61 18h3v-3h-3zm-20 0h3v-3h-3zm-21 0h3v-3h-3zm-20 0h3v-3h-3zm20 19h3v-3h-3zm41 18h3v-3h-3zm-20 0h3v-3h-3zm-21 0h3v-3h-3zm-20 0h3v-3h-3zm20 19h3v-3h-3zm-20 0h3v-3h-3z" fill="#E30613" fill-rule="evenodd"/></svg><svg viewBox="0 0 222 154" id="dots-3-2" xmlns="http://www.w3.org/2000/svg"><path d="M219 3h3V0h-3zm0 37h3v-3h-3zm0 37h3v-3h-3zM60 117h3v-3h-3zm-20 0h3v-3h-3zm-20 0h3v-3h-3zm20 18h3v-3h-3zm-20 0h3v-3h-3zm-20 0h3v-3H0zm60 19h3v-3h-3zm-20 0h3v-3h-3zm-20 0h3v-3h-3zM219 21h3v-3h-3zm-19 0h3v-3h-3zm-20 0h3v-3h-3zm-20 0h3v-3h-3zm-20 0h3v-3h-3zm-20 0h3v-3h-3zm80 19h3v-3h-3zm-20 0h3v-3h-3zm-20 0h3v-3h-3zm-20 0h3v-3h-3zm-20 0h3v-3h-3zm-20 0h3v-3h-3zm119 18h3v-3h-3zm-19 0h3v-3h-3zm-20 0h3v-3h-3zm-20 0h3v-3h-3zm-20 0h3v-3h-3zm-20 0h3v-3h-3zm60 19h3v-3h-3zm-40 0h3v-3h-3zm-20 0h3v-3h-3zm-20 0h3v-3h-3zm-20 0h3v-3h-3zm139 19h3v-3h-3zm-19 0h3v-3h-3zm-20 0h3v-3h-3zm-20 0h3v-3h-3zm-20 0h3v-3h-3zm-20 0h3v-3h-3zm60 18h3v-3h-3zm-20 0h3v-3h-3zm-20 0h3v-3h-3zm-20 0h3v-3h-3zm-20 0h3v-3h-3zm-20 0h3v-3h-3z" fill="#E30613" fill-rule="evenodd"/></svg><svg viewBox="0 0 85 97" id="dots-35-1" xmlns="http://www.w3.org/2000/svg"><path d="M.757 3.414h3v-3h-3zm20.001 0h3v-3h-3zm20 0h3v-3h-3zm-20 19h3v-3h-3zm20 0h3v-3h-3zm21 0h2.999v-3h-2.999zm-61.001 19h3v-3h-3zm20.001 0h3v-3h-3zm20 0h3v-3h-3zm40.999 18h3v-3h-3zm-19.999 0h2.999v-3h-2.999zm-21 0h3v-3h-3zm21 19h2.999v-3h-2.999zm-21 0h3v-3h-3zm-20 0h3v-3h-3zm60.999 18h3v-3h-3zm-19.999 0h2.999v-3h-2.999zm-21 0h3v-3h-3z" fill="#E30613" fill-rule="evenodd"/></svg><svg viewBox="0 0 104 154" id="dots-36-1" xmlns="http://www.w3.org/2000/svg"><path d="M0 3h3V0H0zm20 0h3V0h-3zm20 0h3V0h-3zm20 0h3V0h-3zm20 0h3V0h-3zm20 0h3V0h-3zM20 22h3v-3h-3zm20 0h3v-3h-3zm20 0h3v-3h-3zm20 0h3v-3h-3zm20 0h3v-3h-3zM0 41h3v-3H0zm20 0h3v-3h-3zm20 0h3v-3h-3zm20 0h3v-3h-3zm20 0h3v-3h-3zm20 0h3v-3h-3zM40 59h3v-3h-3zm40 0h3v-3h-3zm20 0h3v-3h-3zM0 78h3v-3H0zm20 0h3v-3h-3zm20 0h3v-3h-3zm20 0h3v-3h-3zm20 0h3v-3h-3zm20 0h3v-3h-3zM40 97h3v-3h-3zm20 0h3v-3h-3zm20 0h3v-3h-3zm20 0h3v-3h-3zm1 20h3v-3h-3zm0 37h3v-3h-3z" fill="#E30613" fill-rule="evenodd"/></svg><svg viewBox="0 0 241 159" id="dots-4-1" xmlns="http://www.w3.org/2000/svg"><path d="M79.757 47.414h3v-3h-3zm20 0h3v-3h-3zm20 0h3v-3h-3zm20 0h3v-3h-3zm20 0h3v-3h-3zm20 0h3v-3h-3zm-80 19h3v-3h-3zm20 0h3v-3h-3zm20 0h3v-3h-3zm20 0h3v-3h-3zm20 0h3v-3h-3zm20 0h3v-3h-3zm-120 18h3v-3h-3zm20 0h3v-3h-3zm20 0h3v-3h-3zm20 0h3v-3h-3zm20 0h3v-3h-3zm20 0h3v-3h-3zm-60 19h3v-3h-3zm40 0h3v-3h-3zm20 0h3v-3h-3zm20 0h3v-3h-3zm20 0h3v-3h-3zm-140 18h3v-3h-3zm20 0h3v-3h-3zm20 0h3v-3h-3zm20 0h3v-3h-3zm20 0h3v-3h-3zm20 0h3v-3h-3zm-60 19h3v-3h-3zm20 0h3v-3h-3zm20 0h3v-3h-3zm20 0h3v-3h-3zm20 0h3v-3h-3zm20 0h3v-3h-3zm18-137h3v-3h-3zm-20 0h3v-3h-3zm-20 0h3v-3h-3zm20 19h3v-3h-3zm-20 0h3v-3h-3zm-20 0h3v-3h-3zm60 19h3v-3h-3zm-20 0h3v-3h-3zm-20 0h3v-3h-3zm-118 24h3v-3h-3zm-19 0h3v-3h-3zm-20 0h3v-3h-3zm-20 0h3v-3h-3zm-20 0h3v-3h-3zm60 19h3v-3h-3zm-20 0h3v-3h-3zm-20 0h3v-3h-3zm-20 0h3v-3h-3zm79 18h3v-3h-3zm-19 0h3v-3h-3zm-20 0h3v-3h-3zm-20 0h3v-3h-3zm-20 0h3v-3h-3zm40 19h3v-3h-3zm-40 0h3v-3h-3zm79 19h3v-3h-3zm-19 0h3v-3h-3zm-20 0h3v-3h-3zm-20 0h3v-3h-3zm-20 0h3v-3h-3zm40 18h3v-3h-3zm-20 0h3v-3h-3zm-20 0h3v-3h-3z" fill="#E30613" fill-rule="evenodd"/></svg><svg viewBox="0 0 225 135" id="dots-4-2" xmlns="http://www.w3.org/2000/svg"><path d="M161.757 3.414h3v-3h-3zm20 0h3v-3h-3zm20 0h3v-3h-3zm-20 19h3v-3h-3zm20 0h3v-3h-3zm20 0h3v-3h-3zm-60 19h3v-3h-3zm20 0h3v-3h-3zm20 0h3v-3h-3zm-60 0h3v-3h-3zm-20 0h3v-3h-3zm-20 0h3v-3h-3zm-21 0h3v-3h-3zm-19.999 0h3v-3h-3zm-20 0h3v-3h-3zm80.999 18h3v-3h-3zm-20 0h3v-3h-3zm-21 0h3v-3h-3zm-19.999 0h3v-3h-3zm-20 0h3v-3h-3zm-20 0h3v-3h-3zm120.999 19h3v-3h-3zm-20 0h3v-3h-3zm-20 0h3v-3h-3zm-21 0h3v-3h-3zm-19.999 0h3v-3h-3zm-20 0h3v-3h-3zm60.999 19h3v-3h-3zm-40.999 0h3v-3h-3zm-20 0h3v-3h-3zm-20 0h3v-3h-3zm-20.001 0h3v-3h-3zm141 18h3v-3h-3zm-20 0h3v-3h-3zm-20 0h3v-3h-3zm-21 0h3v-3h-3zm-19.999 0h3v-3h-3zm-20 0h3v-3h-3zm60.999 19h3v-3h-3zm-21 0h3v-3h-3zm-19.999 0h3v-3h-3zm-20 0h3v-3h-3zm-20 0h3v-3h-3zm-20.001 0h3v-3h-3z" fill="#E30613" fill-rule="evenodd"/></svg><svg viewBox="0 0 145 234" id="dots-5-1" xmlns="http://www.w3.org/2000/svg"><g fill="#E30613" fill-rule="evenodd"><path d="M44.242 196.414h-3v-3h3zM64.242 196.414h-3v-3h3zM84.242 196.414h-3v-3h3zM64.242 214.414h-3v-3h3zM84.242 214.414h-3v-3h3zM104.242 214.414h-3v-3h3zM44.242 233.414h-3v-3h3zM64.242 233.414h-3v-3h3zM84.242 233.414h-3v-3h3zM4.242 119.414h-3v-3h3zM4.242 156.414h-3v-3h3zM24.242 156.414h-3v-3h3zM4.242 193.414h-3v-3h3zM24.242 193.414h-3v-3h3zM.757 3.414h3v-3h-3zm20 0h3v-3h-3zm20 0h3v-3h-3zm20 0h3v-3h-3zm20 0h3v-3h-3zm-80 19h3v-3h-3zm20 0h3v-3h-3zm20 0h3v-3h-3zm20 0h3v-3h-3zm20 0h3v-3h-3zm20 0h3v-3h-3zm-100 19h3v-3h-3zm20 0h3v-3h-3zm20 0h3v-3h-3zm20 0h3v-3h-3zm20 0h3v-3h-3zm-60 18h3v-3h-3zm40 0h3v-3h-3zm20 0h3v-3h-3zm20 0h3v-3h-3zm21 0h3v-3h-3zm-121 19h3v-3h-3zm20 0h3v-3h-3zm20 0h3v-3h-3zm20 0h3v-3h-3zm20 0h3v-3h-3zm-60 19h3v-3h-3zm20 0h3v-3h-3zm20 0h3v-3h-3zm20 0h3v-3h-3zm20 0h3v-3h-3zm21 0h3v-3h-3zm-40 20h3v-3h-3zm20 0h3v-3h-3zm20 0h3v-3h-3zm-20 18h3v-3h-3zm20 0h3v-3h-3zm20 0h3v-3h-3zm-60 19h3v-3h-3zm20 0h3v-3h-3zm20 0h3v-3h-3z"/></g></svg><svg viewBox="0 0 141 140" id="dots-5-2" xmlns="http://www.w3.org/2000/svg"><g fill="#E30613" fill-rule="evenodd"><path d="M141 47h-3v-3h3zM121 47h-3v-3h3zM101 47h-3v-3h3zM81 47h-3v-3h3zM61 47h-3v-3h3zM141 66h-3v-3h3zM121 66h-3v-3h3zM101 66h-3v-3h3zM81 66h-3v-3h3zM61 66h-3v-3h3zM41 66h-3v-3h3zM141 84h-3v-3h3zM121 84h-3v-3h3zM101 84h-3v-3h3zM81 84h-3v-3h3zM61 84h-3v-3h3zM121 103h-3v-3h3zM81 103h-3v-3h3zM61 103h-3v-3h3zM41 103h-3v-3h3zM21 103h-3v-3h3zM141 121h-3v-3h3zM121 121h-3v-3h3zM101 121h-3v-3h3zM81 121h-3v-3h3zM61 121h-3v-3h3zM121 140h-3v-3h3zM101 140h-3v-3h3zM81 140h-3v-3h3zM61 140h-3v-3h3zM41 140h-3v-3h3zM21 140h-3v-3h3zM3 3H0V0h3zM23 3h-3V0h3zM43 3h-3V0h3zM23 22h-3v-3h3zM43 22h-3v-3h3zM63 22h-3v-3h3zM3 41H0v-3h3zM23 41h-3v-3h3zM43 41h-3v-3h3z"/></g></svg><svg viewBox="0 0 220 158" id="dots-6-1" xmlns="http://www.w3.org/2000/svg"><path d="M59 47h3v-3h-3zm20 0h3v-3h-3zm20 0h3v-3h-3zm20 0h3v-3h-3zm20 0h3v-3h-3zm20 0h3v-3h-3zM79 66h3v-3h-3zm20 0h3v-3h-3zm20 0h3v-3h-3zm20 0h3v-3h-3zm20 0h3v-3h-3zm20 0h3v-3h-3zM59 84h3v-3h-3zm20 0h3v-3h-3zm20 0h3v-3h-3zm20 0h3v-3h-3zm20 0h3v-3h-3zm20 0h3v-3h-3zm-60 19h3v-3h-3zm40 0h3v-3h-3zm20 0h3v-3h-3zm20 0h3v-3h-3zm20 0h3v-3h-3zM59 121h3v-3h-3zm20 0h3v-3h-3zm20 0h3v-3h-3zm20 0h3v-3h-3zm20 0h3v-3h-3zm20 0h3v-3h-3zm-60 19h3v-3h-3zm20 0h3v-3h-3zm20 0h3v-3h-3zm20 0h3v-3h-3zm20 0h3v-3h-3zm20 0h3v-3h-3zM217 3h3V0h-3zm-20 0h3V0h-3zm-20 0h3V0h-3zm20 19h3v-3h-3zm-20 0h3v-3h-3zm-20 0h3v-3h-3zm60 19h3v-3h-3zm-20 0h3v-3h-3zm-20 0h3v-3h-3zM59 65h3v-3h-3zm-19 0h3v-3h-3zm-20 0h3v-3h-3zM0 65h3v-3H0zm40 19h3v-3h-3zm-20 0h3v-3h-3zM0 84h3v-3H0zm59 18h3v-3h-3zm-19 0h3v-3h-3zm-20 0h3v-3h-3zm-20 0h3v-3H0zm20 19h3v-3h-3zm39 19h3v-3h-3zm-19 0h3v-3h-3zm-20 0h3v-3h-3zm-20 0h3v-3H0zm20 18h3v-3h-3zm-20 0h3v-3H0z" fill="#E30613" fill-rule="evenodd"/></svg><svg viewBox="0 0 165 210" id="dots-6-2" xmlns="http://www.w3.org/2000/svg"><path d="M141.757 115.414h3v-3h-3zm-20 0h3v-3h-3zm-20 0h3v-3h-3zm-21 0h3v-3h-3zm-20 0h3v-3h-3zm-20 0h3v-3h-3zm81 19h3v-3h-3zm-20 0h3v-3h-3zm-21 0h3v-3h-3zm-20 0h3v-3h-3zm-20 0h3v-3h-3zm-20 0h3v-3h-3zm121 19h3v-3h-3zm-20 0h3v-3h-3zm-20 0h3v-3h-3zm-21 0h3v-3h-3zm-20 0h3v-3h-3zm-20 0h3v-3h-3zm61 18h3v-3h-3zm-41 0h3v-3h-3zm-20 0h3v-3h-3zm-20 0h3v-3h-3zm-20 0h3v-3h-3zm141 19h3v-3h-3zm-20 0h3v-3h-3zm-20 0h3v-3h-3zm-21 0h3v-3h-3zm-20 0h3v-3h-3zm-20 0h3v-3h-3zm61 19h3v-3h-3zm-21 0h3v-3h-3zm-20 0h3v-3h-3zm-20 0h3v-3h-3zm-20 0h3v-3h-3zm-20 0h3v-3h-3zm161-206h3v-3h-3zm-20 0h3v-3h-3zm-20 0h3v-3h-3zm40 19h3v-3h-3zm-20 0h3v-3h-3zm-20 0h3v-3h-3zm-20 0h3v-3h-3zm60 19h3v-3h-3zm-20 0h3v-3h-3zm-20 0h3v-3h-3zm20 18h3v-3h-3zm-20 0h3v-3h-3zm-20 0h3v-3h-3zm-20 0h3v-3h-3zm80 19h3v-3h-3zm-20 0h3v-3h-3zm-20 0h3v-3h-3zm40 19h3v-3h-3zm-20 0h3v-3h-3zm-20 0h3v-3h-3zm-20 0h3v-3h-3zm-20 0h3v-3h-3z" fill="#E30613" fill-rule="evenodd"/></svg><svg viewBox="0 0 284 153" id="dots-7-1" xmlns="http://www.w3.org/2000/svg"><g fill="#FFF" fill-rule="evenodd"><path d="M224.243 37.586h-3v3h3zM243.243 37.586h-3v3h3zM263.243 37.586h-3v3h3zM243.243 18.586h-3v3h3zM263.243 18.586h-3v3h3zM283.243 18.586h-3v3h3zM224.243.586h-3v3h3zM243.243.586h-3v3h3zM263.243.586h-3v3h3zM60.758 59.414h3v-3h-3zm-20 0h3v-3h-3zm-20 0h3v-3h-3zm20 19h3v-3h-3zm-20 0h3v-3h-3zm-20.001 0h3v-3h-3zm60.001 19h3v-3h-3zm-20 0h3v-3h-3zm-20 0h3v-3h-3zm200.999-38h3v-3h-3zm-20 0h3v-3h-3zm-20 0h3v-3h-3zm-20 0h3v-3h-3zm-20 0h3v-3h-3zm-20 0h3v-3h-3zm80 19h3v-3h-3zm-20 0h3v-3h-3zm-20 0h3v-3h-3zm-20 0h3v-3h-3zm-20 0h3v-3h-3zm-20 0h3v-3h-3zm120 19h3v-3h-3zm-20 0h3v-3h-3zm-20 0h3v-3h-3zm-20 0h3v-3h-3zm-20 0h3v-3h-3zm-20 0h3v-3h-3zm60 18h3v-3h-3zm-40 0h3v-3h-3zm-20 0h3v-3h-3zm-20 0h3v-3h-3zm-21 0h3v-3h-3zm141 19h3v-3h-3zm-20 0h3v-3h-3zm-20 0h3v-3h-3zm-20 0h3v-3h-3zm-20 0h3v-3h-3zm-20 0h3v-3h-3zm60 18h3v-3h-3zm-20 0h3v-3h-3zm-20 0h3v-3h-3zm-20 0h3v-3h-3zm-20 0h3v-3h-3zm-21 0h3v-3h-3z"/></g></svg><svg viewBox="0 0 205 135" id="dots-7-2" xmlns="http://www.w3.org/2000/svg"><path d="M161.757 3.414h3v-3h-3zm20 0h3v-3h-3zm20 0h3v-3h-3zm-20 19h3v-3h-3zm20 0h3v-3h-3zm-40 19h3v-3h-3zm20 0h3v-3h-3zm20 0h3v-3h-3zm-60 0h3v-3h-3zm-20 0h3v-3h-3zm-20 0h3v-3h-3zm-21 0h3v-3h-3zm-19.999 0h3v-3h-3zm-20 0h3v-3h-3zm80.999 18h3v-3h-3zm-20 0h3v-3h-3zm-21 0h3v-3h-3zm-19.999 0h3v-3h-3zm-20 0h3v-3h-3zm-20 0h3v-3h-3zm120.999 19h3v-3h-3zm-20 0h3v-3h-3zm-20 0h3v-3h-3zm-21 0h3v-3h-3zm-19.999 0h3v-3h-3zm-20 0h3v-3h-3zm60.999 19h3v-3h-3zm-40.999 0h3v-3h-3zm-20 0h3v-3h-3zm-20 0h3v-3h-3zm-20.001 0h3v-3h-3zm141 18h3v-3h-3zm-20 0h3v-3h-3zm-20 0h3v-3h-3zm-21 0h3v-3h-3zm-19.999 0h3v-3h-3zm-20 0h3v-3h-3zm60.999 19h3v-3h-3zm-21 0h3v-3h-3zm-19.999 0h3v-3h-3zm-20 0h3v-3h-3zm-20 0h3v-3h-3zm-20.001 0h3v-3h-3z" fill="#FFF" fill-rule="evenodd"/></svg><svg viewBox="0 0 121 140" id="dots-8-1" xmlns="http://www.w3.org/2000/svg"><path d="M0 47h3v-3H0zm20 0h3v-3h-3zm20 0h3v-3h-3zm20 0h3v-3h-3zM0 66h3v-3H0zm20 0h3v-3h-3zm20 0h3v-3h-3zm20 0h3v-3h-3zm20 0h3v-3h-3zM0 84h3v-3H0zm20 0h3v-3h-3zm20 0h3v-3h-3zm20 0h3v-3h-3zM0 103h3v-3H0zm40 0h3v-3h-3zm20 0h3v-3h-3zm20 0h3v-3h-3zm20 0h3v-3h-3zM0 121h3v-3H0zm20 0h3v-3h-3zm20 0h3v-3h-3zm20 0h3v-3h-3zM0 140h3v-3H0zm20 0h3v-3h-3zm20 0h3v-3h-3zm20 0h3v-3h-3zm20 0h3v-3h-3zm20 0h3v-3h-3zM118 3h3V0h-3zM98 3h3V0h-3zM78 3h3V0h-3zm20 19h3v-3h-3zm-20 0h3v-3h-3zm-20 0h3v-3h-3zm60 19h3v-3h-3zm-20 0h3v-3h-3zm-20 0h3v-3h-3z" fill="#E30613" fill-rule="evenodd"/></svg><svg viewBox="0 0 144 96" id="dots-8-2" xmlns="http://www.w3.org/2000/svg"><path d="M60 3h3V0h-3zM40 3h3V0h-3zM20 3h3V0h-3zm20 19h3v-3h-3zm-20 0h3v-3h-3zM0 22h3v-3H0zm60 19h3v-3h-3zm-20 0h3v-3h-3zm-20 0h3v-3h-3zM141 3h3V0h-3zm-20 0h3V0h-3zm20 19h3v-3h-3zm-20 0h3v-3h-3zm-20 0h3v-3h-3zm40 19h3v-3h-3zm-20 0h3v-3h-3zm20 18h3v-3h-3zm-20 0h3v-3h-3zm-20 0h3v-3h-3zm-21 0h3v-3h-3zm61 19h3v-3h-3zm-20 0h3v-3h-3zm20 18h3v-3h-3zm-20 0h3v-3h-3zm-20 0h3v-3h-3zm-21 0h3v-3h-3z" fill="#E30613" fill-rule="evenodd"/></svg><svg viewBox="0 0 103 171" id="dots-9-1" xmlns="http://www.w3.org/2000/svg"><path d="M20 96h3v-3h-3zM0 96h3v-3H0zm0 19h3v-3H0zm20 19h3v-3h-3zm-20 0h3v-3H0zm20 37h3v-3h-3zm-20 0h3v-3H0zM80 3h3V0h-3zM60 3h3V0h-3zM40 3h3V0h-3zM20 3h3V0h-3zM0 3h3V0H0zm100 19h3v-3h-3zm-20 0h3v-3h-3zm-20 0h3v-3h-3zm-20 0h3v-3h-3zm-20 0h3v-3h-3zM0 22h3v-3H0zm60 18h3v-3h-3zm-40 0h3v-3h-3zM0 40h3v-3H0zm100 19h3v-3h-3zm-20 0h3v-3h-3zm-20 0h3v-3h-3zm-20 0h3v-3h-3zm-20 0h3v-3h-3zM0 59h3v-3H0zm60 19h3v-3h-3zm-20 0h3v-3h-3zm-20 0h3v-3h-3zM0 78h3v-3H0z" fill="#FFF" fill-rule="evenodd"/></svg><svg viewBox="0 0 183 43" id="dots-9-2" xmlns="http://www.w3.org/2000/svg"><g fill="#FFF" fill-rule="evenodd"><path d="M123 6h-3V3h3zM143 6h-3V3h3zM163 6h-3V3h3zM143 24h-3v-3h3zM163 24h-3v-3h3zM183 24h-3v-3h3zM123 43h-3v-3h3zM143 43h-3v-3h3zM163 43h-3v-3h3zM3 3H0V0h3zM23 3h-3V0h3zM43 3h-3V0h3zM63 3h-3V0h3zM83 3h-3V0h3zM103 3h-3V0h3z"/></g></svg><svg viewBox="0 0 224 22" id="dots-9-3" xmlns="http://www.w3.org/2000/svg"><path d="M60 3h3V0h-3zM40 3h3V0h-3zM20 3h3V0h-3zm20 19h3v-3h-3zm-20 0h3v-3h-3zM0 22h3v-3H0zM221 3h3V0h-3zm-20 0h3V0h-3zm-20 0h3V0h-3zm-20 0h3V0h-3zm-20 0h3V0h-3zm-20 0h3V0h-3zm80 19h3v-3h-3zm-20 0h3v-3h-3zm-20 0h3v-3h-3zm-20 0h3v-3h-3zm-20 0h3v-3h-3zm-20 0h3v-3h-3z" fill="#FFF" fill-rule="evenodd"/></svg></svg>